%TF.GenerationSoftware,KiCad,Pcbnew,6.0.4+dfsg-1+b1*%
%TF.CreationDate,2022-05-18T11:28:58-05:00*%
%TF.ProjectId,HV-pulse-generator,48562d70-756c-4736-952d-67656e657261,C*%
%TF.SameCoordinates,Original*%
%TF.FileFunction,Legend,Bot*%
%TF.FilePolarity,Positive*%
%FSLAX46Y46*%
G04 Gerber Fmt 4.6, Leading zero omitted, Abs format (unit mm)*
G04 Created by KiCad (PCBNEW 6.0.4+dfsg-1+b1) date 2022-05-18 11:28:58*
%MOMM*%
%LPD*%
G01*
G04 APERTURE LIST*
%ADD10C,0.762000*%
%TA.AperFunction,Profile*%
%ADD11C,0.150000*%
%TD*%
%ADD12C,0.150000*%
%ADD13C,1.998980*%
G04 APERTURE END LIST*
D10*
X190500000Y-95250000D02*
X256540000Y-95250000D01*
X190500000Y-57150000D02*
X256540000Y-57150000D01*
X190500000Y-76200000D02*
X190500000Y-95250000D01*
X190500000Y-57150000D02*
X190500000Y-76200000D01*
X190500000Y-76200000D02*
X30480000Y-76200000D01*
D11*
X20320000Y-127000000D02*
X20320000Y-25400000D01*
X259080000Y-25400000D02*
G75*
G03*
X254000000Y-20320000I-5080000J0D01*
G01*
X254000000Y-132080000D02*
G75*
G03*
X259080000Y-127000000I0J5080000D01*
G01*
X254000000Y-20320000D02*
X25400000Y-20320000D01*
X259080000Y-25400000D02*
X259080000Y-127000000D01*
X254000000Y-132080000D02*
X25400000Y-132080000D01*
X20320000Y-127000000D02*
G75*
G03*
X25400000Y-132080000I5080000J0D01*
G01*
X25400000Y-20320000D02*
G75*
G03*
X20320000Y-25400000I0J-5080000D01*
G01*
D12*
X222521428Y-26557619D02*
X222521428Y-27557619D01*
X222521428Y-27081428D02*
X223092857Y-27081428D01*
X223092857Y-26557619D02*
X223092857Y-27557619D01*
X223569047Y-26557619D02*
X223569047Y-27557619D01*
X224569047Y-27510000D02*
X224473809Y-27557619D01*
X224330952Y-27557619D01*
X224188095Y-27510000D01*
X224092857Y-27414761D01*
X224045238Y-27319523D01*
X223997619Y-27129047D01*
X223997619Y-26986190D01*
X224045238Y-26795714D01*
X224092857Y-26700476D01*
X224188095Y-26605238D01*
X224330952Y-26557619D01*
X224426190Y-26557619D01*
X224569047Y-26605238D01*
X224616666Y-26652857D01*
X224616666Y-26986190D01*
X224426190Y-26986190D01*
X225045238Y-26557619D02*
X225045238Y-27557619D01*
X225045238Y-27081428D02*
X225616666Y-27081428D01*
X225616666Y-26557619D02*
X225616666Y-27557619D01*
X226711904Y-27557619D02*
X227045238Y-26557619D01*
X227378571Y-27557619D01*
X227902380Y-27557619D02*
X228092857Y-27557619D01*
X228188095Y-27510000D01*
X228283333Y-27414761D01*
X228330952Y-27224285D01*
X228330952Y-26890952D01*
X228283333Y-26700476D01*
X228188095Y-26605238D01*
X228092857Y-26557619D01*
X227902380Y-26557619D01*
X227807142Y-26605238D01*
X227711904Y-26700476D01*
X227664285Y-26890952D01*
X227664285Y-27224285D01*
X227711904Y-27414761D01*
X227807142Y-27510000D01*
X227902380Y-27557619D01*
X229235714Y-26557619D02*
X228759523Y-26557619D01*
X228759523Y-27557619D01*
X229426190Y-27557619D02*
X229997619Y-27557619D01*
X229711904Y-26557619D02*
X229711904Y-27557619D01*
X230283333Y-26843333D02*
X230759523Y-26843333D01*
X230188095Y-26557619D02*
X230521428Y-27557619D01*
X230854761Y-26557619D01*
X231711904Y-27510000D02*
X231616666Y-27557619D01*
X231473809Y-27557619D01*
X231330952Y-27510000D01*
X231235714Y-27414761D01*
X231188095Y-27319523D01*
X231140476Y-27129047D01*
X231140476Y-26986190D01*
X231188095Y-26795714D01*
X231235714Y-26700476D01*
X231330952Y-26605238D01*
X231473809Y-26557619D01*
X231569047Y-26557619D01*
X231711904Y-26605238D01*
X231759523Y-26652857D01*
X231759523Y-26986190D01*
X231569047Y-26986190D01*
X232188095Y-27081428D02*
X232521428Y-27081428D01*
X232664285Y-26557619D02*
X232188095Y-26557619D01*
X232188095Y-27557619D01*
X232664285Y-27557619D01*
X233854761Y-26557619D02*
X233854761Y-27557619D01*
X234235714Y-27557619D01*
X234330952Y-27510000D01*
X234378571Y-27462380D01*
X234426190Y-27367142D01*
X234426190Y-27224285D01*
X234378571Y-27129047D01*
X234330952Y-27081428D01*
X234235714Y-27033809D01*
X233854761Y-27033809D01*
X234854761Y-27557619D02*
X234854761Y-26748095D01*
X234902380Y-26652857D01*
X234950000Y-26605238D01*
X235045238Y-26557619D01*
X235235714Y-26557619D01*
X235330952Y-26605238D01*
X235378571Y-26652857D01*
X235426190Y-26748095D01*
X235426190Y-27557619D01*
X236378571Y-26557619D02*
X235902380Y-26557619D01*
X235902380Y-27557619D01*
X236664285Y-26605238D02*
X236807142Y-26557619D01*
X237045238Y-26557619D01*
X237140476Y-26605238D01*
X237188095Y-26652857D01*
X237235714Y-26748095D01*
X237235714Y-26843333D01*
X237188095Y-26938571D01*
X237140476Y-26986190D01*
X237045238Y-27033809D01*
X236854761Y-27081428D01*
X236759523Y-27129047D01*
X236711904Y-27176666D01*
X236664285Y-27271904D01*
X236664285Y-27367142D01*
X236711904Y-27462380D01*
X236759523Y-27510000D01*
X236854761Y-27557619D01*
X237092857Y-27557619D01*
X237235714Y-27510000D01*
X237664285Y-27081428D02*
X237997619Y-27081428D01*
X238140476Y-26557619D02*
X237664285Y-26557619D01*
X237664285Y-27557619D01*
X238140476Y-27557619D01*
X239854761Y-27510000D02*
X239759523Y-27557619D01*
X239616666Y-27557619D01*
X239473809Y-27510000D01*
X239378571Y-27414761D01*
X239330952Y-27319523D01*
X239283333Y-27129047D01*
X239283333Y-26986190D01*
X239330952Y-26795714D01*
X239378571Y-26700476D01*
X239473809Y-26605238D01*
X239616666Y-26557619D01*
X239711904Y-26557619D01*
X239854761Y-26605238D01*
X239902380Y-26652857D01*
X239902380Y-26986190D01*
X239711904Y-26986190D01*
X240330952Y-27081428D02*
X240664285Y-27081428D01*
X240807142Y-26557619D02*
X240330952Y-26557619D01*
X240330952Y-27557619D01*
X240807142Y-27557619D01*
X241235714Y-26557619D02*
X241235714Y-27557619D01*
X241807142Y-26557619D01*
X241807142Y-27557619D01*
X242283333Y-27081428D02*
X242616666Y-27081428D01*
X242759523Y-26557619D02*
X242283333Y-26557619D01*
X242283333Y-27557619D01*
X242759523Y-27557619D01*
X243759523Y-26557619D02*
X243426190Y-27033809D01*
X243188095Y-26557619D02*
X243188095Y-27557619D01*
X243569047Y-27557619D01*
X243664285Y-27510000D01*
X243711904Y-27462380D01*
X243759523Y-27367142D01*
X243759523Y-27224285D01*
X243711904Y-27129047D01*
X243664285Y-27081428D01*
X243569047Y-27033809D01*
X243188095Y-27033809D01*
X244140476Y-26843333D02*
X244616666Y-26843333D01*
X244045238Y-26557619D02*
X244378571Y-27557619D01*
X244711904Y-26557619D01*
X244902380Y-27557619D02*
X245473809Y-27557619D01*
X245188095Y-26557619D02*
X245188095Y-27557619D01*
X245997619Y-27557619D02*
X246188095Y-27557619D01*
X246283333Y-27510000D01*
X246378571Y-27414761D01*
X246426190Y-27224285D01*
X246426190Y-26890952D01*
X246378571Y-26700476D01*
X246283333Y-26605238D01*
X246188095Y-26557619D01*
X245997619Y-26557619D01*
X245902380Y-26605238D01*
X245807142Y-26700476D01*
X245759523Y-26890952D01*
X245759523Y-27224285D01*
X245807142Y-27414761D01*
X245902380Y-27510000D01*
X245997619Y-27557619D01*
X247426190Y-26557619D02*
X247092857Y-27033809D01*
X246854761Y-26557619D02*
X246854761Y-27557619D01*
X247235714Y-27557619D01*
X247330952Y-27510000D01*
X247378571Y-27462380D01*
X247426190Y-27367142D01*
X247426190Y-27224285D01*
X247378571Y-27129047D01*
X247330952Y-27081428D01*
X247235714Y-27033809D01*
X246854761Y-27033809D01*
X231497619Y-24947619D02*
X231164285Y-25423809D01*
X230926190Y-24947619D02*
X230926190Y-25947619D01*
X231307142Y-25947619D01*
X231402380Y-25900000D01*
X231450000Y-25852380D01*
X231497619Y-25757142D01*
X231497619Y-25614285D01*
X231450000Y-25519047D01*
X231402380Y-25471428D01*
X231307142Y-25423809D01*
X230926190Y-25423809D01*
X231926190Y-25471428D02*
X232259523Y-25471428D01*
X232402380Y-24947619D02*
X231926190Y-24947619D01*
X231926190Y-25947619D01*
X232402380Y-25947619D01*
X232688095Y-25947619D02*
X233021428Y-24947619D01*
X233354761Y-25947619D01*
X233688095Y-24947619D02*
X233688095Y-25947619D01*
X234116666Y-24995238D02*
X234259523Y-24947619D01*
X234497619Y-24947619D01*
X234592857Y-24995238D01*
X234640476Y-25042857D01*
X234688095Y-25138095D01*
X234688095Y-25233333D01*
X234640476Y-25328571D01*
X234592857Y-25376190D01*
X234497619Y-25423809D01*
X234307142Y-25471428D01*
X234211904Y-25519047D01*
X234164285Y-25566666D01*
X234116666Y-25661904D01*
X234116666Y-25757142D01*
X234164285Y-25852380D01*
X234211904Y-25900000D01*
X234307142Y-25947619D01*
X234545238Y-25947619D01*
X234688095Y-25900000D01*
X235116666Y-24947619D02*
X235116666Y-25947619D01*
X235783333Y-25947619D02*
X235973809Y-25947619D01*
X236069047Y-25900000D01*
X236164285Y-25804761D01*
X236211904Y-25614285D01*
X236211904Y-25280952D01*
X236164285Y-25090476D01*
X236069047Y-24995238D01*
X235973809Y-24947619D01*
X235783333Y-24947619D01*
X235688095Y-24995238D01*
X235592857Y-25090476D01*
X235545238Y-25280952D01*
X235545238Y-25614285D01*
X235592857Y-25804761D01*
X235688095Y-25900000D01*
X235783333Y-25947619D01*
X236640476Y-24947619D02*
X236640476Y-25947619D01*
X237211904Y-24947619D01*
X237211904Y-25947619D01*
X239021428Y-25042857D02*
X238973809Y-24995238D01*
X238830952Y-24947619D01*
X238735714Y-24947619D01*
X238592857Y-24995238D01*
X238497619Y-25090476D01*
X238450000Y-25185714D01*
X238402380Y-25376190D01*
X238402380Y-25519047D01*
X238450000Y-25709523D01*
X238497619Y-25804761D01*
X238592857Y-25900000D01*
X238735714Y-25947619D01*
X238830952Y-25947619D01*
X238973809Y-25900000D01*
X239021428Y-25852380D01*
X231473809Y-23337619D02*
X231473809Y-24337619D01*
X231807142Y-23623333D01*
X232140476Y-24337619D01*
X232140476Y-23337619D01*
X232569047Y-23623333D02*
X233045238Y-23623333D01*
X232473809Y-23337619D02*
X232807142Y-24337619D01*
X233140476Y-23337619D01*
X233664285Y-23813809D02*
X233664285Y-23337619D01*
X233330952Y-24337619D02*
X233664285Y-23813809D01*
X233997619Y-24337619D01*
X235045238Y-24242380D02*
X235092857Y-24290000D01*
X235188095Y-24337619D01*
X235426190Y-24337619D01*
X235521428Y-24290000D01*
X235569047Y-24242380D01*
X235616666Y-24147142D01*
X235616666Y-24051904D01*
X235569047Y-23909047D01*
X234997619Y-23337619D01*
X235616666Y-23337619D01*
X236235714Y-24337619D02*
X236330952Y-24337619D01*
X236426190Y-24290000D01*
X236473809Y-24242380D01*
X236521428Y-24147142D01*
X236569047Y-23956666D01*
X236569047Y-23718571D01*
X236521428Y-23528095D01*
X236473809Y-23432857D01*
X236426190Y-23385238D01*
X236330952Y-23337619D01*
X236235714Y-23337619D01*
X236140476Y-23385238D01*
X236092857Y-23432857D01*
X236045238Y-23528095D01*
X235997619Y-23718571D01*
X235997619Y-23956666D01*
X236045238Y-24147142D01*
X236092857Y-24242380D01*
X236140476Y-24290000D01*
X236235714Y-24337619D01*
X236950000Y-24242380D02*
X236997619Y-24290000D01*
X237092857Y-24337619D01*
X237330952Y-24337619D01*
X237426190Y-24290000D01*
X237473809Y-24242380D01*
X237521428Y-24147142D01*
X237521428Y-24051904D01*
X237473809Y-23909047D01*
X236902380Y-23337619D01*
X237521428Y-23337619D01*
X237902380Y-24242380D02*
X237950000Y-24290000D01*
X238045238Y-24337619D01*
X238283333Y-24337619D01*
X238378571Y-24290000D01*
X238426190Y-24242380D01*
X238473809Y-24147142D01*
X238473809Y-24051904D01*
X238426190Y-23909047D01*
X237854761Y-23337619D01*
X238473809Y-23337619D01*
X242521428Y-125842380D02*
X242521428Y-124842380D01*
X242092857Y-125842380D02*
X242092857Y-125318571D01*
X242140476Y-125223333D01*
X242235714Y-125175714D01*
X242378571Y-125175714D01*
X242473809Y-125223333D01*
X242521428Y-125270952D01*
X241759523Y-125175714D02*
X241378571Y-125175714D01*
X241616666Y-124842380D02*
X241616666Y-125699523D01*
X241569047Y-125794761D01*
X241473809Y-125842380D01*
X241378571Y-125842380D01*
X241188095Y-125175714D02*
X240807142Y-125175714D01*
X241045238Y-124842380D02*
X241045238Y-125699523D01*
X240997619Y-125794761D01*
X240902380Y-125842380D01*
X240807142Y-125842380D01*
X240473809Y-125175714D02*
X240473809Y-126175714D01*
X240473809Y-125223333D02*
X240378571Y-125175714D01*
X240188095Y-125175714D01*
X240092857Y-125223333D01*
X240045238Y-125270952D01*
X239997619Y-125366190D01*
X239997619Y-125651904D01*
X240045238Y-125747142D01*
X240092857Y-125794761D01*
X240188095Y-125842380D01*
X240378571Y-125842380D01*
X240473809Y-125794761D01*
X239616666Y-125794761D02*
X239521428Y-125842380D01*
X239330952Y-125842380D01*
X239235714Y-125794761D01*
X239188095Y-125699523D01*
X239188095Y-125651904D01*
X239235714Y-125556666D01*
X239330952Y-125509047D01*
X239473809Y-125509047D01*
X239569047Y-125461428D01*
X239616666Y-125366190D01*
X239616666Y-125318571D01*
X239569047Y-125223333D01*
X239473809Y-125175714D01*
X239330952Y-125175714D01*
X239235714Y-125223333D01*
X238759523Y-125747142D02*
X238711904Y-125794761D01*
X238759523Y-125842380D01*
X238807142Y-125794761D01*
X238759523Y-125747142D01*
X238759523Y-125842380D01*
X238759523Y-125223333D02*
X238711904Y-125270952D01*
X238759523Y-125318571D01*
X238807142Y-125270952D01*
X238759523Y-125223333D01*
X238759523Y-125318571D01*
X237569047Y-124794761D02*
X238426190Y-126080476D01*
X236521428Y-124794761D02*
X237378571Y-126080476D01*
X235759523Y-125175714D02*
X235759523Y-125985238D01*
X235807142Y-126080476D01*
X235854761Y-126128095D01*
X235950000Y-126175714D01*
X236092857Y-126175714D01*
X236188095Y-126128095D01*
X235759523Y-125794761D02*
X235854761Y-125842380D01*
X236045238Y-125842380D01*
X236140476Y-125794761D01*
X236188095Y-125747142D01*
X236235714Y-125651904D01*
X236235714Y-125366190D01*
X236188095Y-125270952D01*
X236140476Y-125223333D01*
X236045238Y-125175714D01*
X235854761Y-125175714D01*
X235759523Y-125223333D01*
X235283333Y-125842380D02*
X235283333Y-125175714D01*
X235283333Y-124842380D02*
X235330952Y-124890000D01*
X235283333Y-124937619D01*
X235235714Y-124890000D01*
X235283333Y-124842380D01*
X235283333Y-124937619D01*
X234950000Y-125175714D02*
X234569047Y-125175714D01*
X234807142Y-124842380D02*
X234807142Y-125699523D01*
X234759523Y-125794761D01*
X234664285Y-125842380D01*
X234569047Y-125842380D01*
X234235714Y-125842380D02*
X234235714Y-124842380D01*
X233807142Y-125842380D02*
X233807142Y-125318571D01*
X233854761Y-125223333D01*
X233950000Y-125175714D01*
X234092857Y-125175714D01*
X234188095Y-125223333D01*
X234235714Y-125270952D01*
X232902380Y-125175714D02*
X232902380Y-125842380D01*
X233330952Y-125175714D02*
X233330952Y-125699523D01*
X233283333Y-125794761D01*
X233188095Y-125842380D01*
X233045238Y-125842380D01*
X232950000Y-125794761D01*
X232902380Y-125747142D01*
X232426190Y-125842380D02*
X232426190Y-124842380D01*
X232426190Y-125223333D02*
X232330952Y-125175714D01*
X232140476Y-125175714D01*
X232045238Y-125223333D01*
X231997619Y-125270952D01*
X231950000Y-125366190D01*
X231950000Y-125651904D01*
X231997619Y-125747142D01*
X232045238Y-125794761D01*
X232140476Y-125842380D01*
X232330952Y-125842380D01*
X232426190Y-125794761D01*
X231521428Y-125747142D02*
X231473809Y-125794761D01*
X231521428Y-125842380D01*
X231569047Y-125794761D01*
X231521428Y-125747142D01*
X231521428Y-125842380D01*
X230616666Y-125794761D02*
X230711904Y-125842380D01*
X230902380Y-125842380D01*
X230997619Y-125794761D01*
X231045238Y-125747142D01*
X231092857Y-125651904D01*
X231092857Y-125366190D01*
X231045238Y-125270952D01*
X230997619Y-125223333D01*
X230902380Y-125175714D01*
X230711904Y-125175714D01*
X230616666Y-125223333D01*
X230045238Y-125842380D02*
X230140476Y-125794761D01*
X230188095Y-125747142D01*
X230235714Y-125651904D01*
X230235714Y-125366190D01*
X230188095Y-125270952D01*
X230140476Y-125223333D01*
X230045238Y-125175714D01*
X229902380Y-125175714D01*
X229807142Y-125223333D01*
X229759523Y-125270952D01*
X229711904Y-125366190D01*
X229711904Y-125651904D01*
X229759523Y-125747142D01*
X229807142Y-125794761D01*
X229902380Y-125842380D01*
X230045238Y-125842380D01*
X229283333Y-125842380D02*
X229283333Y-125175714D01*
X229283333Y-125270952D02*
X229235714Y-125223333D01*
X229140476Y-125175714D01*
X228997619Y-125175714D01*
X228902380Y-125223333D01*
X228854761Y-125318571D01*
X228854761Y-125842380D01*
X228854761Y-125318571D02*
X228807142Y-125223333D01*
X228711904Y-125175714D01*
X228569047Y-125175714D01*
X228473809Y-125223333D01*
X228426190Y-125318571D01*
X228426190Y-125842380D01*
X227235714Y-124794761D02*
X228092857Y-126080476D01*
X244902380Y-126785714D02*
X244902380Y-127452380D01*
X245330952Y-126785714D02*
X245330952Y-127309523D01*
X245283333Y-127404761D01*
X245188095Y-127452380D01*
X245045238Y-127452380D01*
X244950000Y-127404761D01*
X244902380Y-127357142D01*
X244521428Y-126785714D02*
X244330952Y-127452380D01*
X244140476Y-126976190D01*
X243950000Y-127452380D01*
X243759523Y-126785714D01*
X243378571Y-127071428D02*
X242616666Y-127071428D01*
X242140476Y-127452380D02*
X242140476Y-126785714D01*
X242140476Y-126880952D02*
X242092857Y-126833333D01*
X241997619Y-126785714D01*
X241854761Y-126785714D01*
X241759523Y-126833333D01*
X241711904Y-126928571D01*
X241711904Y-127452380D01*
X241711904Y-126928571D02*
X241664285Y-126833333D01*
X241569047Y-126785714D01*
X241426190Y-126785714D01*
X241330952Y-126833333D01*
X241283333Y-126928571D01*
X241283333Y-127452380D01*
X240378571Y-127452380D02*
X240378571Y-126928571D01*
X240426190Y-126833333D01*
X240521428Y-126785714D01*
X240711904Y-126785714D01*
X240807142Y-126833333D01*
X240378571Y-127404761D02*
X240473809Y-127452380D01*
X240711904Y-127452380D01*
X240807142Y-127404761D01*
X240854761Y-127309523D01*
X240854761Y-127214285D01*
X240807142Y-127119047D01*
X240711904Y-127071428D01*
X240473809Y-127071428D01*
X240378571Y-127023809D01*
X239473809Y-127452380D02*
X239473809Y-126452380D01*
X239473809Y-127404761D02*
X239569047Y-127452380D01*
X239759523Y-127452380D01*
X239854761Y-127404761D01*
X239902380Y-127357142D01*
X239950000Y-127261904D01*
X239950000Y-126976190D01*
X239902380Y-126880952D01*
X239854761Y-126833333D01*
X239759523Y-126785714D01*
X239569047Y-126785714D01*
X239473809Y-126833333D01*
X238997619Y-127452380D02*
X238997619Y-126785714D01*
X238997619Y-126452380D02*
X239045238Y-126500000D01*
X238997619Y-126547619D01*
X238950000Y-126500000D01*
X238997619Y-126452380D01*
X238997619Y-126547619D01*
X238569047Y-127404761D02*
X238473809Y-127452380D01*
X238283333Y-127452380D01*
X238188095Y-127404761D01*
X238140476Y-127309523D01*
X238140476Y-127261904D01*
X238188095Y-127166666D01*
X238283333Y-127119047D01*
X238426190Y-127119047D01*
X238521428Y-127071428D01*
X238569047Y-126976190D01*
X238569047Y-126928571D01*
X238521428Y-126833333D01*
X238426190Y-126785714D01*
X238283333Y-126785714D01*
X238188095Y-126833333D01*
X237569047Y-127452380D02*
X237664285Y-127404761D01*
X237711904Y-127357142D01*
X237759523Y-127261904D01*
X237759523Y-126976190D01*
X237711904Y-126880952D01*
X237664285Y-126833333D01*
X237569047Y-126785714D01*
X237426190Y-126785714D01*
X237330952Y-126833333D01*
X237283333Y-126880952D01*
X237235714Y-126976190D01*
X237235714Y-127261904D01*
X237283333Y-127357142D01*
X237330952Y-127404761D01*
X237426190Y-127452380D01*
X237569047Y-127452380D01*
X236807142Y-126785714D02*
X236807142Y-127452380D01*
X236807142Y-126880952D02*
X236759523Y-126833333D01*
X236664285Y-126785714D01*
X236521428Y-126785714D01*
X236426190Y-126833333D01*
X236378571Y-126928571D01*
X236378571Y-127452380D01*
X235902380Y-127071428D02*
X235140476Y-127071428D01*
X234235714Y-127404761D02*
X234330952Y-127452380D01*
X234521428Y-127452380D01*
X234616666Y-127404761D01*
X234664285Y-127357142D01*
X234711904Y-127261904D01*
X234711904Y-126976190D01*
X234664285Y-126880952D01*
X234616666Y-126833333D01*
X234521428Y-126785714D01*
X234330952Y-126785714D01*
X234235714Y-126833333D01*
X233807142Y-127452380D02*
X233807142Y-126452380D01*
X233378571Y-127452380D02*
X233378571Y-126928571D01*
X233426190Y-126833333D01*
X233521428Y-126785714D01*
X233664285Y-126785714D01*
X233759523Y-126833333D01*
X233807142Y-126880952D01*
X232521428Y-127404761D02*
X232616666Y-127452380D01*
X232807142Y-127452380D01*
X232902380Y-127404761D01*
X232950000Y-127309523D01*
X232950000Y-126928571D01*
X232902380Y-126833333D01*
X232807142Y-126785714D01*
X232616666Y-126785714D01*
X232521428Y-126833333D01*
X232473809Y-126928571D01*
X232473809Y-127023809D01*
X232950000Y-127119047D01*
X232045238Y-127452380D02*
X232045238Y-126785714D01*
X232045238Y-126880952D02*
X231997619Y-126833333D01*
X231902380Y-126785714D01*
X231759523Y-126785714D01*
X231664285Y-126833333D01*
X231616666Y-126928571D01*
X231616666Y-127452380D01*
X231616666Y-126928571D02*
X231569047Y-126833333D01*
X231473809Y-126785714D01*
X231330952Y-126785714D01*
X231235714Y-126833333D01*
X231188095Y-126928571D01*
X231188095Y-127452380D01*
X230711904Y-127071428D02*
X229950000Y-127071428D01*
X229521428Y-127404761D02*
X229426190Y-127452380D01*
X229235714Y-127452380D01*
X229140476Y-127404761D01*
X229092857Y-127309523D01*
X229092857Y-127261904D01*
X229140476Y-127166666D01*
X229235714Y-127119047D01*
X229378571Y-127119047D01*
X229473809Y-127071428D01*
X229521428Y-126976190D01*
X229521428Y-126928571D01*
X229473809Y-126833333D01*
X229378571Y-126785714D01*
X229235714Y-126785714D01*
X229140476Y-126833333D01*
X228664285Y-127452380D02*
X228664285Y-126452380D01*
X228235714Y-127452380D02*
X228235714Y-126928571D01*
X228283333Y-126833333D01*
X228378571Y-126785714D01*
X228521428Y-126785714D01*
X228616666Y-126833333D01*
X228664285Y-126880952D01*
X227616666Y-127452380D02*
X227711904Y-127404761D01*
X227759523Y-127357142D01*
X227807142Y-127261904D01*
X227807142Y-126976190D01*
X227759523Y-126880952D01*
X227711904Y-126833333D01*
X227616666Y-126785714D01*
X227473809Y-126785714D01*
X227378571Y-126833333D01*
X227330952Y-126880952D01*
X227283333Y-126976190D01*
X227283333Y-127261904D01*
X227330952Y-127357142D01*
X227378571Y-127404761D01*
X227473809Y-127452380D01*
X227616666Y-127452380D01*
X226854761Y-126785714D02*
X226854761Y-127785714D01*
X226854761Y-126833333D02*
X226759523Y-126785714D01*
X226569047Y-126785714D01*
X226473809Y-126833333D01*
X226426190Y-126880952D01*
X226378571Y-126976190D01*
X226378571Y-127261904D01*
X226426190Y-127357142D01*
X226473809Y-127404761D01*
X226569047Y-127452380D01*
X226759523Y-127452380D01*
X226854761Y-127404761D01*
X225997619Y-127404761D02*
X225902380Y-127452380D01*
X225711904Y-127452380D01*
X225616666Y-127404761D01*
X225569047Y-127309523D01*
X225569047Y-127261904D01*
X225616666Y-127166666D01*
X225711904Y-127119047D01*
X225854761Y-127119047D01*
X225950000Y-127071428D01*
X225997619Y-126976190D01*
X225997619Y-126928571D01*
X225950000Y-126833333D01*
X225854761Y-126785714D01*
X225711904Y-126785714D01*
X225616666Y-126833333D01*
X224426190Y-126404761D02*
X225283333Y-127690476D01*
X246450000Y-129062380D02*
X246450000Y-128062380D01*
X246021428Y-129062380D02*
X246021428Y-128538571D01*
X246069047Y-128443333D01*
X246164285Y-128395714D01*
X246307142Y-128395714D01*
X246402380Y-128443333D01*
X246450000Y-128490952D01*
X245545238Y-129062380D02*
X245545238Y-128395714D01*
X245545238Y-128062380D02*
X245592857Y-128110000D01*
X245545238Y-128157619D01*
X245497619Y-128110000D01*
X245545238Y-128062380D01*
X245545238Y-128157619D01*
X244640476Y-128395714D02*
X244640476Y-129205238D01*
X244688095Y-129300476D01*
X244735714Y-129348095D01*
X244830952Y-129395714D01*
X244973809Y-129395714D01*
X245069047Y-129348095D01*
X244640476Y-129014761D02*
X244735714Y-129062380D01*
X244926190Y-129062380D01*
X245021428Y-129014761D01*
X245069047Y-128967142D01*
X245116666Y-128871904D01*
X245116666Y-128586190D01*
X245069047Y-128490952D01*
X245021428Y-128443333D01*
X244926190Y-128395714D01*
X244735714Y-128395714D01*
X244640476Y-128443333D01*
X244164285Y-129062380D02*
X244164285Y-128062380D01*
X243735714Y-129062380D02*
X243735714Y-128538571D01*
X243783333Y-128443333D01*
X243878571Y-128395714D01*
X244021428Y-128395714D01*
X244116666Y-128443333D01*
X244164285Y-128490952D01*
X243259523Y-128681428D02*
X242497619Y-128681428D01*
X242116666Y-128395714D02*
X241878571Y-129062380D01*
X241640476Y-128395714D01*
X241116666Y-129062380D02*
X241211904Y-129014761D01*
X241259523Y-128967142D01*
X241307142Y-128871904D01*
X241307142Y-128586190D01*
X241259523Y-128490952D01*
X241211904Y-128443333D01*
X241116666Y-128395714D01*
X240973809Y-128395714D01*
X240878571Y-128443333D01*
X240830952Y-128490952D01*
X240783333Y-128586190D01*
X240783333Y-128871904D01*
X240830952Y-128967142D01*
X240878571Y-129014761D01*
X240973809Y-129062380D01*
X241116666Y-129062380D01*
X240211904Y-129062380D02*
X240307142Y-129014761D01*
X240354761Y-128919523D01*
X240354761Y-128062380D01*
X239973809Y-128395714D02*
X239592857Y-128395714D01*
X239830952Y-128062380D02*
X239830952Y-128919523D01*
X239783333Y-129014761D01*
X239688095Y-129062380D01*
X239592857Y-129062380D01*
X238830952Y-129062380D02*
X238830952Y-128538571D01*
X238878571Y-128443333D01*
X238973809Y-128395714D01*
X239164285Y-128395714D01*
X239259523Y-128443333D01*
X238830952Y-129014761D02*
X238926190Y-129062380D01*
X239164285Y-129062380D01*
X239259523Y-129014761D01*
X239307142Y-128919523D01*
X239307142Y-128824285D01*
X239259523Y-128729047D01*
X239164285Y-128681428D01*
X238926190Y-128681428D01*
X238830952Y-128633809D01*
X237926190Y-128395714D02*
X237926190Y-129205238D01*
X237973809Y-129300476D01*
X238021428Y-129348095D01*
X238116666Y-129395714D01*
X238259523Y-129395714D01*
X238354761Y-129348095D01*
X237926190Y-129014761D02*
X238021428Y-129062380D01*
X238211904Y-129062380D01*
X238307142Y-129014761D01*
X238354761Y-128967142D01*
X238402380Y-128871904D01*
X238402380Y-128586190D01*
X238354761Y-128490952D01*
X238307142Y-128443333D01*
X238211904Y-128395714D01*
X238021428Y-128395714D01*
X237926190Y-128443333D01*
X237069047Y-129014761D02*
X237164285Y-129062380D01*
X237354761Y-129062380D01*
X237450000Y-129014761D01*
X237497619Y-128919523D01*
X237497619Y-128538571D01*
X237450000Y-128443333D01*
X237354761Y-128395714D01*
X237164285Y-128395714D01*
X237069047Y-128443333D01*
X237021428Y-128538571D01*
X237021428Y-128633809D01*
X237497619Y-128729047D01*
X236592857Y-128681428D02*
X235830952Y-128681428D01*
X235354761Y-128395714D02*
X235354761Y-129395714D01*
X235354761Y-128443333D02*
X235259523Y-128395714D01*
X235069047Y-128395714D01*
X234973809Y-128443333D01*
X234926190Y-128490952D01*
X234878571Y-128586190D01*
X234878571Y-128871904D01*
X234926190Y-128967142D01*
X234973809Y-129014761D01*
X235069047Y-129062380D01*
X235259523Y-129062380D01*
X235354761Y-129014761D01*
X234021428Y-128395714D02*
X234021428Y-129062380D01*
X234450000Y-128395714D02*
X234450000Y-128919523D01*
X234402380Y-129014761D01*
X234307142Y-129062380D01*
X234164285Y-129062380D01*
X234069047Y-129014761D01*
X234021428Y-128967142D01*
X233402380Y-129062380D02*
X233497619Y-129014761D01*
X233545238Y-128919523D01*
X233545238Y-128062380D01*
X233069047Y-129014761D02*
X232973809Y-129062380D01*
X232783333Y-129062380D01*
X232688095Y-129014761D01*
X232640476Y-128919523D01*
X232640476Y-128871904D01*
X232688095Y-128776666D01*
X232783333Y-128729047D01*
X232926190Y-128729047D01*
X233021428Y-128681428D01*
X233069047Y-128586190D01*
X233069047Y-128538571D01*
X233021428Y-128443333D01*
X232926190Y-128395714D01*
X232783333Y-128395714D01*
X232688095Y-128443333D01*
X231830952Y-129014761D02*
X231926190Y-129062380D01*
X232116666Y-129062380D01*
X232211904Y-129014761D01*
X232259523Y-128919523D01*
X232259523Y-128538571D01*
X232211904Y-128443333D01*
X232116666Y-128395714D01*
X231926190Y-128395714D01*
X231830952Y-128443333D01*
X231783333Y-128538571D01*
X231783333Y-128633809D01*
X232259523Y-128729047D01*
X231354761Y-128681428D02*
X230592857Y-128681428D01*
X229688095Y-128395714D02*
X229688095Y-129205238D01*
X229735714Y-129300476D01*
X229783333Y-129348095D01*
X229878571Y-129395714D01*
X230021428Y-129395714D01*
X230116666Y-129348095D01*
X229688095Y-129014761D02*
X229783333Y-129062380D01*
X229973809Y-129062380D01*
X230069047Y-129014761D01*
X230116666Y-128967142D01*
X230164285Y-128871904D01*
X230164285Y-128586190D01*
X230116666Y-128490952D01*
X230069047Y-128443333D01*
X229973809Y-128395714D01*
X229783333Y-128395714D01*
X229688095Y-128443333D01*
X228830952Y-129014761D02*
X228926190Y-129062380D01*
X229116666Y-129062380D01*
X229211904Y-129014761D01*
X229259523Y-128919523D01*
X229259523Y-128538571D01*
X229211904Y-128443333D01*
X229116666Y-128395714D01*
X228926190Y-128395714D01*
X228830952Y-128443333D01*
X228783333Y-128538571D01*
X228783333Y-128633809D01*
X229259523Y-128729047D01*
X228354761Y-128395714D02*
X228354761Y-129062380D01*
X228354761Y-128490952D02*
X228307142Y-128443333D01*
X228211904Y-128395714D01*
X228069047Y-128395714D01*
X227973809Y-128443333D01*
X227926190Y-128538571D01*
X227926190Y-129062380D01*
X227069047Y-129014761D02*
X227164285Y-129062380D01*
X227354761Y-129062380D01*
X227450000Y-129014761D01*
X227497619Y-128919523D01*
X227497619Y-128538571D01*
X227450000Y-128443333D01*
X227354761Y-128395714D01*
X227164285Y-128395714D01*
X227069047Y-128443333D01*
X227021428Y-128538571D01*
X227021428Y-128633809D01*
X227497619Y-128729047D01*
X226592857Y-129062380D02*
X226592857Y-128395714D01*
X226592857Y-128586190D02*
X226545238Y-128490952D01*
X226497619Y-128443333D01*
X226402380Y-128395714D01*
X226307142Y-128395714D01*
X225545238Y-129062380D02*
X225545238Y-128538571D01*
X225592857Y-128443333D01*
X225688095Y-128395714D01*
X225878571Y-128395714D01*
X225973809Y-128443333D01*
X225545238Y-129014761D02*
X225640476Y-129062380D01*
X225878571Y-129062380D01*
X225973809Y-129014761D01*
X226021428Y-128919523D01*
X226021428Y-128824285D01*
X225973809Y-128729047D01*
X225878571Y-128681428D01*
X225640476Y-128681428D01*
X225545238Y-128633809D01*
X225211904Y-128395714D02*
X224830952Y-128395714D01*
X225069047Y-128062380D02*
X225069047Y-128919523D01*
X225021428Y-129014761D01*
X224926190Y-129062380D01*
X224830952Y-129062380D01*
X224354761Y-129062380D02*
X224450000Y-129014761D01*
X224497619Y-128967142D01*
X224545238Y-128871904D01*
X224545238Y-128586190D01*
X224497619Y-128490952D01*
X224450000Y-128443333D01*
X224354761Y-128395714D01*
X224211904Y-128395714D01*
X224116666Y-128443333D01*
X224069047Y-128490952D01*
X224021428Y-128586190D01*
X224021428Y-128871904D01*
X224069047Y-128967142D01*
X224116666Y-129014761D01*
X224211904Y-129062380D01*
X224354761Y-129062380D01*
X223592857Y-129062380D02*
X223592857Y-128395714D01*
X223592857Y-128586190D02*
X223545238Y-128490952D01*
X223497619Y-128443333D01*
X223402380Y-128395714D01*
X223307142Y-128395714D01*
D13*
%TO.C,R2*%
X92710000Y-114300000D03*
X85090000Y-114300000D03*
%TD*%
%TO.C,R3*%
X85090000Y-93980000D03*
X85090000Y-86360000D03*
%TD*%
%TO.C,R4*%
X158750000Y-106680000D03*
X143750000Y-106680000D03*
%TD*%
%TO.C,R7*%
X85090000Y-30480000D03*
X85090000Y-22860000D03*
%TD*%
%TO.C,R6*%
X92710000Y-50800000D03*
X85090000Y-50800000D03*
%TD*%
%TO.C,R8*%
X143510000Y-43180000D03*
X158510000Y-43180000D03*
%TD*%
M02*
